<svg version="1.1" xmlns="http://www.w3.org/2000/svg" xmlns:xlink="http://www.w3.org/1999/xlink" viewBox="0 0 256 256"><g fill="#c7b299" fill-rule="evenodd" stroke="none" stroke-width="1" stroke-linecap="butt" stroke-linejoin="miter" stroke-miterlimit="10" stroke-dasharray="" stroke-dashoffset="0" font-family="none" font-weight="none" font-size="none" text-anchor="none" style="mix-blend-mode: normal"><g transform="translate(36.59874,35.41453) scale(3.60784,3.60784)"><path d="M48.66797,18.4696c-0.62463,-0.62231 -1.6286,-0.62231 -2.24841,0l-13.84619,13.84436l-19.46768,8.57263l-2.99905,-2.99866l8.57645,-19.4657l13.8439,-13.84668c0.62121,-0.62073 0.62121,-1.62561 0,-2.24841c-0.62299,-0.62146 -1.6286,-0.62146 -2.24841,0l-14.2677,14.26428l-14.47665,32.87207l32.86752,-14.47827l14.26624,-14.26807c0.62122,-0.61731 0.62122,-1.62683 0,-2.24756zM28.49524,29.46606c0.30981,0.30737 0.71594,0.46533 1.12482,0.46533c0.40753,0 0.8136,-0.15796 1.12506,-0.46533l13.3316,-13.33203c0.62286,-0.62353 0.62286,-1.62854 0,-2.24927c-0.62292,-0.62439 -1.62689,-0.62439 -2.24982,0l-13.33166,13.33166c-0.61981,0.61987 -0.61981,1.62683 0,2.24963zM25.01508,25.98547c0.3114,0.30786 0.71905,0.46448 1.12488,0.46448c0.40912,0 0.815,-0.15662 1.12494,-0.46448l13.33313,-13.33289c0.62146,-0.62232 0.62146,-1.6294 0,-2.24963c-0.62427,-0.62268 -1.62823,-0.62268 -2.24988,0l-13.33307,13.33167c-0.6214,0.61975 -0.6214,1.62976 0,2.25085zM21.53415,22.50232c0.3107,0.31128 0.7189,0.46582 1.12506,0.46582c0.40579,0 0.81403,-0.15454 1.12473,-0.46582l13.33258,-13.32996c0.62292,-0.62476 0.62292,-1.63013 0,-2.25c-0.62128,-0.62402 -1.62701,-0.62402 -2.24988,0l-13.33249,13.33081c-0.62064,0.62024 -0.62064,1.62976 0,2.24915z"></path></g></g></svg>